<svg width="25" height="25" viewBox="0 0 25 25" fill="none" xmlns="http://www.w3.org/2000/svg">
<path d="M12.5 0C5.59644 0 0 5.59644 0 12.5C0 19.4036 5.59644 25 12.5 25C19.4036 25 25 19.4036 25 12.5C25 5.59644 19.4036 0 12.5 0ZM12.5 23.4375C6.45937 23.4375 1.5625 18.5406 1.5625 12.5C1.5625 6.45937 6.45937 1.5625 12.5 1.5625C18.5406 1.5625 23.4375 6.45937 23.4375 12.5C23.4375 18.5406 18.5406 23.4375 12.5 23.4375Z" fill="#474747"/>
<path d="M14.2891 5.70312L8.03906 11.9531C7.73613 12.2579 7.73613 12.75 8.03906 13.0547L14.2891 19.3047L15.3906 18.1953L9.69531 12.5L15.3906 6.80469L14.2891 5.70312Z" fill="#474747"/>
</svg>
