<svg width="105" height="115" viewBox="0 0 105 115" fill="none" xmlns="http://www.w3.org/2000/svg">
<path d="M33.2609 115C51.6303 115 66.5217 113.929 66.5217 112.608C66.5217 111.287 51.6303 110.215 33.2609 110.215C14.8914 110.215 0 111.287 0 112.608C0 113.929 14.8914 115 33.2609 115Z" fill="#E6E6E6"/>
<path d="M46.5211 67.2559C46.8475 65.3346 48.5373 64.2055 50.2222 63.7536C52.1453 63.2378 54.1952 63.3013 56.1523 63.5339C60.0934 64.0024 63.9632 65.2684 67.9626 65.0721C71.44 64.8887 74.8105 63.7519 77.7374 61.7756C80.6815 59.792 83.054 57.0048 84.5996 53.7137C86.1562 50.4014 86.8465 46.7157 86.6001 43.0325C86.5674 42.5746 86.5177 42.1186 86.4563 41.6641C86.4124 41.3388 85.941 41.4772 85.9847 41.8003C86.4607 45.4622 85.9689 49.1908 84.5627 52.5799C83.1822 55.9346 80.939 58.8209 78.0837 60.9166C75.2371 63.0003 71.9103 64.2475 68.4485 64.529C64.5001 64.8311 60.6636 63.6417 56.7835 63.103C54.8239 62.8308 52.8251 62.7295 50.8686 63.0862C49.1355 63.4021 47.3574 64.2145 46.4678 65.8972C46.2651 66.2778 46.1237 66.6908 46.0494 67.1196C45.9946 67.4422 46.4659 67.5806 46.5211 67.2559H46.5211Z" fill="#3F3D56"/>
<path d="M84.6196 42.7192C95.8754 42.7192 105 33.1562 105 21.3596C105 9.56301 95.8754 0 84.6196 0C73.3638 0 64.2391 9.56301 64.2391 21.3596C64.2391 33.1562 73.3638 42.7192 84.6196 42.7192Z" fill="#A55EEA"/>
<path d="M76.9565 22.5557C79.838 22.5557 82.1739 20.1076 82.1739 17.0877C82.1739 14.0677 79.838 11.6196 76.9565 11.6196C74.075 11.6196 71.7391 14.0677 71.7391 17.0877C71.7391 20.1076 74.075 22.5557 76.9565 22.5557Z" fill="white"/>
<path d="M78.5912 28.0238C78.6339 28.8538 78.9784 29.6351 79.5537 30.2071C80.1291 30.7792 80.8917 31.0986 81.6848 31.0996H90.163C90.9561 31.0986 91.7187 30.7792 92.2941 30.2071C92.8694 29.6351 93.2139 28.8538 93.2566 28.0238H78.5912Z" fill="white"/>
<path d="M75 21.7868C76.5308 21.7868 77.7717 20.4862 77.7717 18.8819C77.7717 17.2775 76.5308 15.977 75 15.977C73.4692 15.977 72.2283 17.2775 72.2283 18.8819C72.2283 20.4862 73.4692 21.7868 75 21.7868Z" fill="#3F3D56"/>
<path d="M75.9783 18.3692C76.3385 18.3692 76.6305 18.0632 76.6305 17.6857C76.6305 17.3082 76.3385 17.0022 75.9783 17.0022C75.6181 17.0022 75.3261 17.3082 75.3261 17.6857C75.3261 18.0632 75.6181 18.3692 75.9783 18.3692Z" fill="white"/>
<path d="M93.9131 22.6412C96.7946 22.6412 99.1305 20.193 99.1305 17.1731C99.1305 14.1532 96.7946 11.705 93.9131 11.705C91.0316 11.705 88.6957 14.1532 88.6957 17.1731C88.6957 20.193 91.0316 22.6412 93.9131 22.6412Z" fill="white"/>
<path d="M91.9566 21.7868C93.4873 21.7868 94.7283 20.4862 94.7283 18.8819C94.7283 17.2775 93.4873 15.977 91.9566 15.977C90.4258 15.977 89.1848 17.2775 89.1848 18.8819C89.1848 20.4862 90.4258 21.7868 91.9566 21.7868Z" fill="#3F3D56"/>
<path d="M92.9348 18.3692C93.295 18.3692 93.5869 18.0632 93.5869 17.6857C93.5869 17.3082 93.295 17.0022 92.9348 17.0022C92.5746 17.0022 92.2826 17.3082 92.2826 17.6857C92.2826 18.0632 92.5746 18.3692 92.9348 18.3692Z" fill="white"/>
<path d="M84.9457 25.2897C86.0262 25.2897 86.9022 24.3717 86.9022 23.2392C86.9022 22.1068 86.0262 21.1887 84.9457 21.1887C83.8651 21.1887 82.9891 22.1068 82.9891 23.2392C82.9891 24.3717 83.8651 25.2897 84.9457 25.2897Z" fill="#3F3D56"/>
<path d="M87.8804 41.523H84.2935V44.4279H87.8804V41.523Z" fill="#A55EEA"/>
<path d="M36.4014 98.6162C36.4014 98.6162 38.7029 105.68 37.7165 108.265L40.6757 111.022L42.4841 108.609C42.4841 108.609 40.5113 106.542 40.6757 104.991C40.8401 103.441 41.0045 97.927 41.0045 97.927L36.4014 98.6162Z" fill="#FFB9B9"/>
<path d="M47.4152 112.399C47.2808 112.481 47.1526 112.559 47.0347 112.631H36.8308C36.7362 112.574 36.6603 112.489 36.613 112.386C36.5658 112.283 36.5494 112.167 36.5661 112.054C36.6137 111.799 36.7357 111.279 36.8866 110.681C37.2443 109.266 37.7695 107.413 37.8832 107.61C37.8835 107.61 37.8838 107.61 37.884 107.61C37.8843 107.61 37.8845 107.61 37.8847 107.611C37.8849 107.611 37.885 107.611 37.8851 107.611C37.8852 107.612 37.8853 107.612 37.8853 107.612C38.0445 107.92 38.3733 109.298 39.1962 109.127C40.0191 108.953 41.3342 108.609 41.3342 108.609C41.3342 108.609 40.8648 107.504 41.3135 107.057C41.41 106.963 41.5322 106.903 41.6629 106.886C42.6492 106.715 42.6492 108.264 42.6492 108.264L46.2656 110.332C46.5773 110.422 46.8815 110.539 47.1753 110.681C47.9093 111.04 48.6351 111.656 47.4152 112.399Z" fill="#2F2E41"/>
<path d="M29.8254 96.0317L25.5511 101.373L24.4003 104.13L25.8799 105.336L27.195 104.819C27.195 104.819 28.3458 101.718 29.4966 101.201C30.6474 100.684 33.4422 97.2378 33.4422 97.2378L29.8254 96.0317Z" fill="#FFB9B9"/>
<path d="M38.7851 91.9328L36.6052 96.1679L35.0434 99.2003C34.5437 99.5121 33.8778 99.507 33.1611 99.3226C32.827 99.233 32.4996 99.1184 32.1812 98.9797C30.2249 98.1407 28.2406 96.4745 28.2406 96.4745L31.9955 91.5572L33.2219 89.9531L33.5129 89.5706L34.9152 90.1995L37.3894 91.3074L38.7851 91.9328Z" fill="#2F2E41"/>
<path d="M29.0562 55.3626L27.3148 62.8486L29.1073 72.4527C29.1073 72.4527 29.1514 76.3788 30.7939 76.0809C32.4365 75.7829 30.7151 71.8233 30.7151 71.8233L29.9117 63.9484L32.4805 56.1685C32.6885 55.5383 32.4258 54.8617 31.8231 54.4759C30.806 53.8249 29.3606 54.2881 29.0562 55.3626Z" fill="#FFB9B9"/>
<path d="M35.1684 48.9085L33.6888 53.7328L30.894 52.1822C30.894 52.1822 32.0448 48.7362 32.0448 48.2193C32.0448 47.7024 35.1684 48.9085 35.1684 48.9085Z" fill="#FFB9B9"/>
<path d="M34.0176 50.8038C35.9243 50.8038 37.4699 49.1838 37.4699 47.1856C37.4699 45.1873 35.9243 43.5673 34.0176 43.5673C32.1109 43.5673 30.5652 45.1873 30.5652 47.1856C30.5652 49.1838 32.1109 50.8038 34.0176 50.8038Z" fill="#FFB9B9"/>
<path d="M34.9218 54.8528L34.2642 54.1636L34.0998 53.3021C34.0998 53.3021 31.9626 50.373 30.1542 51.4068C29.5891 51.7299 29.1684 52.4736 28.8572 53.3435C28.0645 55.6171 28.1384 58.1234 29.0637 60.3414L31.9626 67.4304L38.5385 66.7412L37.3877 62.2615C37.3877 62.2615 38.5385 59.5048 36.4013 57.6095L34.9218 54.8528Z" fill="#A55EEA"/>
<path opacity="0.3" d="M38.7851 91.9328L36.6052 96.1679L35.0434 99.2003C34.5437 99.5121 33.8778 99.507 33.1611 99.3226C33.0361 98.4508 33.7825 93.8436 33.1956 90.0875L33.2219 89.9531L33.5129 89.5706L34.9152 90.1995L37.3894 91.3074L38.7851 91.9328Z" fill="black"/>
<path d="M38.7851 66.3105C38.7851 66.3105 34.5108 63.5538 31.5516 66.9997L31.716 68.0335C31.716 68.0335 29.25 70.9625 30.7296 77.1652C32.2092 83.3679 34.5108 99.5638 34.5108 99.5638C34.5108 99.5638 39.9359 99.9084 42.4019 98.0132C42.4019 98.0132 41.5799 76.6483 38.7851 74.5808V66.3105Z" fill="#2F2E41"/>
<path d="M29.8722 56.7142L34.5108 62.6923L42.8951 66.9997C42.8951 66.9997 45.9064 69.3355 46.6725 67.7839C47.4387 66.2323 43.3883 65.2767 43.3883 65.2767L36.9162 61.1885L32.5542 54.3419C32.2009 53.7873 31.5277 53.5979 30.8702 53.868C29.7607 54.3238 29.2393 55.8106 29.8722 56.7142Z" fill="#FFB9B9"/>
<path d="M26.799 104.44C26.799 104.44 27.8067 103.112 28.4086 103.949C29.0106 104.786 27.6988 105.503 27.6988 105.503L27.6224 109.82C27.6224 109.82 28.3383 113.121 26.4055 111.846C24.4728 110.57 24.3968 110.418 24.0166 109.654C23.6364 108.89 22.8509 105.821 22.1729 104.832C21.4949 103.842 20.874 101.85 21.6788 101.604C22.4836 101.358 26.2351 100.484 26.0482 100.775C25.8613 101.066 24.8473 102.009 25.3733 102.694C25.8992 103.378 26.799 104.44 26.799 104.44Z" fill="#2F2E41"/>
<path d="M35.8256 44.0974C35.8256 44.093 35.826 44.0886 35.826 44.0842C35.826 43.096 35.5463 42.1299 35.0225 41.3082C34.4986 40.4866 33.754 39.8461 32.8829 39.468C32.0117 39.0898 31.0531 38.9908 30.1283 39.1836C29.2035 39.3764 28.354 39.8523 27.6872 40.5511C27.0205 41.2499 26.5664 42.1402 26.3824 43.1094C26.1985 44.0787 26.2929 45.0833 26.6537 45.9963C27.0146 46.9093 27.6257 47.6897 28.4097 48.2387C29.1937 48.7878 30.1155 49.0808 31.0584 49.0808C31.1691 49.0808 31.6071 49.9501 31.716 49.9423C31.7225 47.3048 33.3504 44.2745 35.8256 44.0974Z" fill="#2F2E41"/>
<path d="M25.962 43.5673C27.6871 43.5673 29.0856 42.1017 29.0856 40.2937C29.0856 38.4857 27.6871 37.02 25.962 37.02C24.2369 37.02 22.8385 38.4857 22.8385 40.2937C22.8385 42.1017 24.2369 43.5673 25.962 43.5673Z" fill="#2F2E41"/>
<path d="M25.8188 35.3347C26.5715 35.3297 27.3005 35.6101 27.8714 36.1243C28.4423 36.6384 28.8165 37.3516 28.925 38.1322C29.0336 38.9128 28.8692 39.7083 28.4621 40.3718C28.0549 41.0354 27.4326 41.5222 26.7099 41.7426C27.1574 41.7419 27.5995 41.6403 28.0063 41.4447C28.4131 41.2492 28.7749 40.9642 29.0674 40.6092C29.3599 40.2542 29.5761 39.8374 29.7014 39.3872C29.8266 38.9369 29.8581 38.4637 29.7935 37.9996C29.729 37.5354 29.57 37.0913 29.3273 36.6972C29.0846 36.3032 28.7639 35.9684 28.3869 35.7157C28.0099 35.4629 27.5855 35.2981 27.1424 35.2324C26.6993 35.1666 26.2479 35.2015 25.8188 35.3347Z" fill="#2F2E41"/>
<path d="M33.1956 43.0504H35.698C36.2552 43.0504 36.7895 43.2824 37.1834 43.6953C37.5774 44.1081 37.7987 44.6681 37.7987 45.252V46.1518H33.1956V43.0504Z" fill="#2F2E41"/>
</svg>
