<svg width="105" height="115" viewBox="0 0 105 115" fill="none" xmlns="http://www.w3.org/2000/svg">
<g clip-path="url(#clip0)">
<path d="M32.0218 107.837C32.0218 107.837 27.2781 99.3256 20.1293 96.8727C17.1293 95.8437 15.8583 95.2754 14.0674 92.6293" stroke="#E6E6E6" stroke-width="2" stroke-miterlimit="10"/>
<path d="M15.998 100.072C17.0705 99.6962 19.5044 96.6398 19.5044 96.6398C19.5044 96.6398 15.7228 95.7637 14.6502 96.1396C14.1519 96.3325 13.7472 96.714 13.5216 97.2034C13.2959 97.6929 13.2671 98.252 13.4411 98.7626C13.6151 99.2732 13.9783 99.6953 14.4541 99.9397C14.9298 100.184 15.4807 100.232 15.9904 100.072L15.998 100.072Z" fill="#E6E6E6"/>
<path d="M23.1654 104.378C24.2847 104.191 27.1977 101.596 27.1977 101.596C27.1977 101.596 23.616 100.085 22.4962 100.272C22.2299 100.317 21.9749 100.414 21.7457 100.558C21.5165 100.702 21.3176 100.891 21.1604 101.113C21.0032 101.335 20.8907 101.587 20.8294 101.853C20.7681 102.119 20.7592 102.395 20.8031 102.664C20.8471 102.934 20.9431 103.192 21.0856 103.424C21.2281 103.656 21.4143 103.858 21.6337 104.017C21.8531 104.176 22.1012 104.29 22.3641 104.352C22.6269 104.414 22.8992 104.423 23.1655 104.379L23.1654 104.378Z" fill="#E6E6E6"/>
<path d="M12.7808 89.6995C13.7096 90.3586 15.2281 93.9756 15.2281 93.9756C15.2281 93.9756 11.3526 93.7683 10.4229 93.1098C10.1993 92.954 10.0085 92.7549 9.86128 92.524C9.7141 92.2931 9.61353 92.0349 9.56539 91.7644C9.51724 91.494 9.52247 91.2165 9.58077 90.9481C9.63907 90.6797 9.74929 90.4256 9.90506 90.2006C10.0608 89.9755 10.2591 89.7839 10.4884 89.6368C10.7176 89.4898 10.9734 89.3901 11.2409 89.3437C11.5084 89.2972 11.7824 89.3048 12.0469 89.3661C12.3115 89.4274 12.5615 89.5412 12.7824 89.7008L12.7808 89.6995Z" fill="#E6E6E6"/>
<path d="M31.6905 107.632C31.6905 107.632 30.5648 95.8319 23.8268 89.555C21 86.92 19.0363 83.4751 18.3359 79.6455C18.0061 77.8303 17.8415 75.9883 17.8443 74.1426" stroke="#535461" stroke-width="2" stroke-miterlimit="10"/>
<path d="M13.6242 70.1616C14.1384 71.4548 17.9419 74.2602 17.9419 74.2602C17.9419 74.2602 18.7612 69.5677 18.2471 68.2745C18.1263 67.9646 17.9461 67.682 17.717 67.4429C17.4878 67.2037 17.2143 67.0129 16.912 66.8813C16.6097 66.7497 16.2847 66.68 15.9556 66.6761C15.6266 66.6723 15.3001 66.7343 14.9949 66.8588C14.6897 66.9833 14.4118 67.1676 14.1772 67.4013C13.9427 67.635 13.7561 67.9133 13.6282 68.2203C13.5003 68.5273 13.4337 68.8569 13.4322 69.1901C13.4306 69.5233 13.4942 69.8534 13.6192 70.1616H13.6242Z" fill="#A55EEA"/>
<path d="M12.6516 78.8818C13.7773 79.6835 18.4765 79.9456 18.4765 79.9456C18.4765 79.9456 16.6466 75.5558 15.521 74.7529C15.2534 74.5608 14.9509 74.424 14.631 74.3504C14.3111 74.2769 13.98 74.268 13.6567 74.3243C13.3333 74.3806 13.0242 74.501 12.7469 74.6786C12.4696 74.8561 12.2297 75.0873 12.0408 75.359C11.852 75.6306 11.718 75.9374 11.6465 76.2616C11.5749 76.5858 11.5673 76.9211 11.6241 77.2483C11.6808 77.5755 11.8007 77.8881 11.977 78.1683C12.1534 78.4484 12.3825 78.6906 12.6515 78.8809L12.6516 78.8818Z" fill="#A55EEA"/>
<path d="M17.6905 91.0507C19.0664 91.1671 23.249 88.9913 23.249 88.9913C23.249 88.9913 19.4804 86.134 18.1083 86.0212C17.7783 85.9858 17.4446 86.0175 17.1268 86.1145C16.8091 86.2114 16.5136 86.3716 16.2578 86.5857C16.0019 86.7998 15.7909 87.0635 15.6371 87.3613C15.4832 87.659 15.3896 87.9849 15.3618 88.3198C15.334 88.6547 15.3725 88.9918 15.475 89.3114C15.5776 89.631 15.7422 89.9267 15.9591 90.1811C16.176 90.4354 16.4409 90.6434 16.7382 90.7927C17.0355 90.942 17.3593 91.0297 17.6905 91.0507Z" fill="#A55EEA"/>
<path d="M23.5492 99.3897C24.8825 99.7392 29.3716 98.3106 29.3716 98.3106C29.3716 98.3106 26.1333 94.8529 24.8012 94.5034C24.4839 94.4188 24.1532 94.3986 23.8282 94.4437C23.5031 94.4889 23.19 94.5986 22.9069 94.7666C22.6238 94.9345 22.3763 95.1574 22.1784 95.4224C21.9806 95.6875 21.8364 95.9895 21.7541 96.3111C21.6718 96.6327 21.6529 96.9676 21.6987 97.2966C21.7445 97.6256 21.854 97.9421 22.0209 98.2282C22.1878 98.5142 22.4088 98.7641 22.6712 98.9635C22.9337 99.1628 23.2325 99.3078 23.5504 99.39L23.5492 99.3897Z" fill="#A55EEA"/>
<path d="M23.4318 78.2145C22.8739 79.4898 18.9791 82.1635 18.9791 82.1635C18.9791 82.1635 18.3163 77.4456 18.8727 76.1715C19.0052 75.8684 19.1954 75.5947 19.4323 75.366C19.6693 75.1373 19.9484 74.958 20.2537 74.8386C20.5591 74.7191 20.8847 74.6617 21.212 74.6696C21.5392 74.6775 21.8617 74.7507 22.1611 74.8848C22.4605 75.019 22.7308 75.2115 22.9567 75.4515C23.1825 75.6914 23.3595 75.9741 23.4775 76.2833C23.5955 76.5925 23.6522 76.9222 23.6444 77.2535C23.6365 77.5849 23.5643 77.9115 23.4318 78.2146V78.2145Z" fill="#A55EEA"/>
<path d="M30.1607 88.0539C29.2526 89.1014 24.7461 90.4734 24.7461 90.4734C24.7461 90.4734 25.5078 85.7707 26.4159 84.7246C26.852 84.2217 27.4674 83.9149 28.1269 83.8715C28.7864 83.8282 29.4359 84.0519 29.9325 84.4935C30.4291 84.935 30.7321 85.5583 30.7749 86.2261C30.8177 86.8938 30.5968 87.5515 30.1607 88.0543V88.0539Z" fill="#A55EEA"/>
<path d="M35.4065 98.527C34.681 99.715 30.4728 101.839 30.4728 101.839C30.4728 101.839 30.4377 97.0743 31.1582 95.8863C31.3295 95.6036 31.5542 95.3578 31.8193 95.1629C32.0844 94.9681 32.3849 94.828 32.7035 94.7508C33.022 94.6735 33.3525 94.6605 33.6761 94.7126C33.9996 94.7647 34.3098 94.8808 34.5891 95.0543C34.8683 95.2277 35.1111 95.4552 35.3035 95.7237C35.4959 95.9921 35.6342 96.2964 35.7105 96.619C35.7868 96.9416 35.7996 97.2762 35.7482 97.6038C35.6968 97.9314 35.5821 98.2456 35.4108 98.5283L35.4065 98.527Z" fill="#A55EEA"/>
<path d="M52.476 115C81.4577 115 104.952 113.442 104.952 111.521C104.952 109.599 81.4577 108.042 52.476 108.042C23.4943 108.042 0 109.599 0 111.521C0 113.442 23.4943 115 52.476 115Z" fill="#E6E6E6"/>
<path opacity="0.1" d="M92.7369 31.6464C92.7369 31.6464 97.1552 30.2133 97.6073 31.6464H92.7369Z" fill="black"/>
<path d="M53.9517 37.0287C53.9517 37.0287 54.9504 31.7237 58.1654 31.6967L60.5139 36.5921L58.9478 37.6858C58.9478 37.6858 55.5445 37.7953 53.9517 37.0287Z" fill="#D0CDE1"/>
<path opacity="0.502" d="M60.5137 36.5907L58.9476 37.6858C58.9476 37.6858 56.5598 37.7626 54.8406 37.3359C54.535 37.2636 54.2371 37.1607 53.9515 37.0287C53.9537 36.9996 53.9598 36.9709 53.9698 36.9434C53.9694 36.9368 53.9694 36.9301 53.9698 36.9234C54.1174 36.2576 54.3209 35.6057 54.5779 34.9749C54.6763 34.7373 54.7887 34.4914 54.9094 34.2467C55.38 33.3294 56.0415 32.4304 56.9461 31.9853C57.2809 31.8186 57.6454 31.7219 58.0178 31.7009H58.1611L58.2117 31.809L59.0069 33.463L60.5137 36.5907Z" fill="black"/>
<path d="M87.1977 58.6341C87.1977 58.6341 90.5687 58.306 90.8706 58.5516C91.1725 58.7973 93.0856 60.0564 94.2191 59.2627C95.3525 58.469 94.5968 55.7071 94.5968 55.5975C94.5968 55.4879 94.4901 51.5783 94.4901 51.5783L92.4633 48.8163L89.9253 43.9807L84.7397 43.4616L84.8802 51.1418L84.8535 55.08L87.1977 58.6341Z" fill="#D0CDE1"/>
<path opacity="0.503" d="M87.1977 58.6341C87.1977 58.6341 90.5687 58.306 90.8706 58.5516C91.1725 58.7973 93.0856 60.0564 94.2191 59.2627C95.3525 58.469 94.5968 55.7071 94.5968 55.5975C94.5968 55.4879 94.4901 51.5783 94.4901 51.5783L92.4633 48.8163L89.9253 43.9807L84.7397 43.4616L84.8802 51.1418L84.8535 55.08L87.1977 58.6341Z" fill="black"/>
<path d="M57.4885 31.5602C57.4885 31.5602 57.2202 34.8969 55.1667 34.9509C55.1667 34.9509 54.5853 34.5954 53.8029 34.0036C51.9996 32.6368 49.1369 30.0099 49.9278 27.5665C51.0627 24.0664 56.5714 30.5205 56.5714 30.5205L56.9928 31.0012L57.4885 31.5602Z" fill="#FBBEBE"/>
<path opacity="0.1" d="M57.4884 31.5602C57.4884 31.5602 57.2201 34.8968 55.1666 34.9508C55.1666 34.9508 54.5851 34.5953 53.8028 34.0035L53.6273 33.7759C53.9752 33.9599 54.3588 34.0643 54.751 34.0817C55.2664 34.093 55.8466 33.8996 56.2187 33.1459C56.4322 32.7164 56.6199 32.2742 56.7806 31.8217C56.879 31.5568 56.9487 31.2817 56.9884 31.0015L57.4884 31.5602Z" fill="black"/>
<path d="M56.5978 37.6033L56.1357 37.0017L54.5766 34.9751L53.7844 33.9396C54.1321 34.1245 54.5158 34.2294 54.9081 34.2468C55.4236 34.2582 56.0037 34.0648 56.3773 33.3096C56.591 32.8801 56.7786 32.4379 56.9392 31.9854C57.1962 31.2472 57.1906 30.8669 57.1012 30.7396C57.0118 30.6122 57.6743 31.2359 57.9931 31.5418L58.0043 31.5531C58.0956 31.6384 58.1545 31.6954 58.1545 31.6954L58.2093 31.8063L58.9916 33.3907L59 33.4575C59.0713 33.961 59.3354 37.151 56.5978 37.6033Z" fill="#E6E6E6"/>
<path d="M72.7757 107.996C72.7757 107.996 70.5076 109.501 69.3736 109.276C68.2396 109.051 67.0771 109.66 67.0771 109.66C66.2957 110.525 65.3102 111.174 64.2132 111.547C62.3774 112.176 59.8127 111.93 58.3547 111.436C57.6637 111.205 57.6089 110.903 57.9404 110.533C58.3098 110.12 59.1567 109.62 60.1372 109.03C61.9996 107.909 63.9983 105.693 63.9983 105.693C63.9983 105.693 64.025 105.147 64.3494 104.901C64.5482 104.729 64.7306 104.539 64.8943 104.332C65.1837 103.985 65.4562 103.621 65.4562 103.621L72.1278 103.84C72.1278 103.84 72.2416 104.328 72.33 104.826C72.4044 105.234 72.4626 105.649 72.4241 105.81C72.3427 106.164 72.6137 106.493 72.6137 106.493L72.7331 107.609L72.7757 107.996Z" fill="#2F2E41"/>
<path d="M86.7411 109.882C86.661 110.209 86.5644 110.796 86.5202 111.072C86.5055 111.166 86.4977 111.223 86.4977 111.223C86.4977 111.223 85.9569 112.426 82.9597 112.864C79.9625 113.302 79.9623 111.852 79.9623 111.852C79.9623 111.852 79.9735 111.695 79.9932 111.46C80.0452 110.82 80.1533 109.596 80.232 109.336C80.3401 108.98 80.1519 107.421 80.1519 107.421L80.1196 105.791L80.0971 104.654L85.0673 104.133C85.0989 104.51 85.1524 104.884 85.2274 105.254C85.2585 105.457 85.3328 105.651 85.4451 105.823C85.7148 106.126 85.8777 107.464 85.8777 107.464C85.8777 107.464 86.8464 109.444 86.7411 109.882Z" fill="#2F2E41"/>
<path opacity="0.1" d="M72.1331 103.839C72.1331 103.839 72.2468 104.327 72.3353 104.824C71.6149 104.959 68.4643 105.511 67.6764 105.124C66.7859 104.686 64.8672 104.44 64.8672 104.44L64.8995 104.329C65.1889 103.982 65.4613 103.618 65.4613 103.618L72.1331 103.839Z" fill="black"/>
<path opacity="0.1" d="M85.2243 105.259C83.9602 105.043 81.2044 105.567 80.1174 105.791L80.0948 104.654L85.0642 104.133C85.0956 104.511 85.1491 104.888 85.2243 105.259Z" fill="black"/>
<path d="M88.0348 63.8026L87.9267 67.6584C87.9267 67.6584 88.0672 73.538 87.6571 74.4681C87.2469 75.3983 87.2512 79.1444 87.2512 79.1444C87.2512 79.1444 87.5223 80.9222 87.2245 81.3034C86.9267 81.6846 87.1431 83.1097 87.365 83.8479C87.587 84.5861 87.3903 86.4193 87.3903 86.4193L87.337 96.7562C87.337 96.7562 87.0407 99.4358 86.6615 99.8196C86.5525 99.9332 86.4753 100.074 86.4375 100.228C86.3998 100.381 86.4029 100.542 86.4466 100.694C86.4466 100.694 86.1226 102.225 86.2036 102.499C86.2846 102.773 86.4466 103.4 85.8258 103.701C85.2051 104.001 85.3651 104.959 85.3651 104.959C83.8805 104.604 79.6682 105.562 79.6682 105.562C79.6682 105.562 78.8255 103.812 78.4785 102.635C78.1315 101.459 78.9926 100.721 79.5586 100.644C80.1246 100.567 79.1541 99.549 79.1541 99.549C79.1541 99.549 79.2622 99.4067 78.9921 98.4283C78.722 97.4498 79.0454 94.9267 79.1326 94.2711C79.2198 93.6155 79.6186 90.4424 79.6186 90.4424C79.6186 90.4424 79.4037 86.4232 79.5653 86.2583C79.7268 86.0933 80.2675 84.5075 79.9978 83.9827C79.7281 83.4579 79.2956 80.0444 79.2956 79.8582C79.2956 79.6719 78.9445 75.2358 78.9445 75.2358C78.9445 75.2358 78.6215 72.1453 78.7015 71.4897C78.7815 70.8341 78.4851 68.4006 78.4851 68.4006C78.4851 66.3752 77.325 64.1879 77.325 64.1879L77.2956 64.2662L74.7857 70.9507C74.7857 70.9507 74.3811 72.9732 74.0287 74.1223C73.8075 74.9024 73.6317 75.695 73.502 76.496L73.4782 76.6383C73.4683 76.6994 73.4599 76.7521 73.4543 76.7919L73.4375 76.9028C73.4375 76.9028 73.6258 78.3521 73.3294 78.8172C73.0331 79.2824 72.6961 80.6761 72.6961 81.0643C72.6961 81.4525 72.7215 82.9261 72.7215 82.9261C72.7215 82.9261 72.8311 85.8517 72.5333 86.1803C72.2355 86.5088 72.3928 86.7819 72.3928 86.7819C72.3928 86.7819 72.8801 88.9963 72.6639 89.5706C72.4477 90.1449 72.6106 91.4835 72.6106 91.4835C72.6106 91.4835 72.1822 95.7133 72.1344 95.9351C72.0867 96.1568 71.7833 97.8495 72.1063 97.9859C72.4293 98.1224 73.0515 98.943 73.0515 98.943C73.0515 98.943 73.192 102.526 72.7017 102.799C72.2115 103.072 72.4841 104.467 72.4841 104.467C72.4841 104.467 68.5696 105.234 67.6777 104.795C66.7858 104.357 64.8686 104.111 64.8686 104.111L65.1369 103.212C65.1222 103.244 64.9431 103.535 64.8152 102.416C64.6747 101.24 65.8153 101.814 65.8153 101.814C65.8153 101.814 66.7057 102.033 65.2731 100.611C63.8406 99.1888 64.5441 97.7396 64.6251 97.7396C64.7061 97.7396 64.8948 95.6346 64.8948 95.6346C64.8948 95.6346 65.1378 94.3759 64.9481 93.3917C64.7584 92.4074 64.5983 89.3439 64.5983 89.3439C64.5983 89.3439 64.7388 87.02 64.4902 86.1724C64.2416 85.3247 64.6522 83.793 64.7332 83.436C64.8142 83.0789 64.4902 79.827 64.4902 79.827C64.4902 79.827 64.7613 78.2966 64.5983 77.1759C64.4353 76.0552 64.7612 71.925 64.7612 71.925L65.2472 67.1661C65.2472 67.1661 65.597 65.6897 65.5435 65.0882C65.4901 64.4868 65.9481 62.386 65.9481 62.386C65.9481 62.386 65.8948 61.6194 66.1644 61.0736C66.4341 60.5278 66.5437 58.7226 66.5437 58.7226L69.1365 52.705L70.4005 47.4L87.5503 47.2359C87.5503 47.2359 87.6135 47.6952 87.716 48.5316C87.8185 49.3679 87.9674 50.6066 88.1373 52.1341C88.2862 53.5222 88.4491 55.1549 88.6086 56.9698C89.1149 62.7628 88.0348 63.8026 88.0348 63.8026Z" fill="#2F2E41"/>
<path d="M86.442 15.9169L82.4432 20.2392C82.4432 20.2392 77.3137 18.1599 77.853 17.4488C78.0623 17.1729 78.0286 16.311 77.9078 15.3461C77.7183 13.8328 77.3137 12.0877 77.3137 12.0877C77.3137 12.0877 86.279 10.6113 85.522 12.1417C85.2411 12.7021 85.2945 13.3549 85.4659 13.958C85.6849 14.6598 86.0145 15.3211 86.442 15.9164V15.9169Z" fill="#FBBEBE"/>
<path opacity="0.1" d="M85.5221 12.1422C85.2413 12.7026 85.1148 12.7566 85.2875 13.3597C84.1148 14.6397 82.6189 16.0265 80.7704 16.0265C79.777 16.028 78.797 15.7952 77.9079 15.3466C77.7184 13.8333 77.3138 12.0882 77.3138 12.0882C77.3138 12.0882 86.2791 10.6118 85.5221 12.1422Z" fill="black"/>
<path d="M87.1977 9.35332C87.1977 11.0798 86.5204 12.7355 85.3148 13.9563C84.1092 15.1771 82.4741 15.8629 80.7691 15.8629C79.0641 15.8629 77.429 15.1771 76.2234 13.9563C75.0178 12.7355 74.3405 11.0798 74.3405 9.35332C74.3405 9.322 74.3405 9.29069 74.3405 9.25952C74.3528 7.53343 75.0417 5.88298 76.2557 4.67125C77.4698 3.45952 79.1095 2.78576 80.8141 2.7982C82.5187 2.81064 84.1486 3.50826 85.3453 4.73758C86.5419 5.9669 87.2073 7.62724 87.195 9.35332H87.1977Z" fill="#FBBEBE"/>
<path opacity="0.1" d="M88.1289 52.2922C87.2778 52.2994 84.442 52.3235 81.2732 52.3747H81.2352L80.1879 52.3926H80.1557C76.3985 52.4537 72.696 51.7099 71.21 51.8521C68.0497 52.1522 72.344 48.8981 72.344 48.8981C74.6987 49.4769 77.1209 49.7248 79.5424 49.6348L80.4511 49.5879C83.323 49.4229 86.2096 49.1499 87.7155 48.6919C87.8199 49.536 87.966 50.7705 88.1289 52.2922Z" fill="black"/>
<path d="M88.1289 52.1285C87.2778 52.1285 84.442 52.1599 81.2732 52.2097H81.2352L80.1873 52.2282H80.1551C76.3979 52.2893 72.6954 51.5454 71.2094 51.6862C68.0491 51.9863 72.3434 48.7334 72.3434 48.7334C74.6983 49.3114 77.1204 49.5593 79.5418 49.4701L80.4505 49.4218C83.3224 49.2578 86.209 48.9838 87.7149 48.5258C87.8199 49.3708 87.966 50.601 88.1289 52.1285Z" fill="#7C5C5C"/>
<path opacity="0.1" d="M79.0414 17.7218L74.072 20.0742L70.2377 50.1006C70.2377 50.1006 72.5057 49.0624 73.8017 49.7181C75.0978 50.3738 79.0941 49.7736 79.0941 49.7736C79.0941 49.7736 82.0114 49.6087 82.4439 49.9376C82.8765 50.2666 87.952 48.5709 87.952 48.5709C87.952 48.5709 88.8706 46.4915 88.1684 46.1645C87.4662 45.8374 88.3847 42.6089 88.3847 42.6089L87.9522 20.9494L87.0884 18.1607L84.7664 16.7375L82.3871 18.6519L81.2633 18.816L79.0414 17.7218Z" fill="black"/>
<path d="M79.0414 17.3932L74.072 19.7456L70.2377 49.7748C70.2377 49.7748 72.5057 48.7352 73.8017 49.3922C75.0978 50.0493 79.0941 49.4462 79.0941 49.4462C79.0941 49.4462 82.0114 49.2822 82.4439 49.6103C82.8765 49.9384 87.952 48.2435 87.952 48.2435C87.952 48.2435 88.8706 46.1656 88.1684 45.8371C87.4662 45.5086 88.3847 42.2815 88.3847 42.2815L87.9522 20.6192L87.0884 17.8305L84.7664 16.4075L82.3871 18.3232L81.2633 18.4853L79.0414 17.3932Z" fill="#E6E6E6"/>
<path opacity="0.1" d="M78.96 18.7883C78.96 18.7883 80.3912 20.5106 80.3645 20.8662C80.3379 21.2217 80.2844 22.0694 80.2844 22.0694L79.203 24.2853C79.203 24.2853 78.6088 27.0473 78.6088 27.6219C78.6088 28.1965 77.6636 33.1687 77.6636 33.1687L76.5296 40.8261L75.0984 50.8626L76.5564 53.4056L78.2854 51.9292L80.5804 34.0431L81.0664 30.5158C81.0664 30.5158 81.5791 24.1712 81.5791 23.5155C81.5791 22.8597 81.2828 21.1361 81.2828 21.1361C81.2828 21.1361 81.6339 19.4948 83.0919 19.1122C84.55 18.7297 82.9838 19.0298 82.9838 19.0298L82.1411 18.3457L81.4121 18.6472C81.4121 18.6472 79.3925 18.0231 78.96 18.7883Z" fill="black"/>
<path d="M78.7984 18.6276C78.7984 18.6276 80.2296 20.35 80.203 20.7055C80.1763 21.061 80.1215 21.9087 80.1215 21.9087L79.0414 24.1246C79.0414 24.1246 78.4544 26.8835 78.4544 27.4569C78.4544 28.0303 77.5091 33.0037 77.5091 33.0037L76.3672 40.6725L74.9428 50.7023L76.4022 53.2467L78.1228 51.7662L80.4203 33.8842L80.9064 30.3569C80.9064 30.3569 81.419 24.0123 81.419 23.3552C81.419 22.6982 81.1227 20.9759 81.1227 20.9759C81.1227 20.9759 81.4738 19.3354 82.9318 18.952C84.3899 18.5686 82.8237 18.8709 82.8237 18.8709L81.981 18.1868L81.2634 18.4851C81.2634 18.4851 79.2309 17.8587 78.7984 18.6276Z" fill="#2F2E41"/>
<path opacity="0.1" d="M77.8532 15.7533C77.8532 15.7533 77.6368 15.9173 77.5835 17.0106C77.5302 18.1039 76.7735 20.5662 76.7735 20.5662C76.7735 20.5662 79.5826 18.5963 80.9872 18.8154L77.8532 15.7533Z" fill="black"/>
<path d="M77.8532 15.4248C77.8532 15.4248 77.6368 15.5888 77.5835 16.6835C77.5302 17.7781 76.7735 20.239 76.7735 20.239C76.7735 20.239 79.5826 18.2705 80.9872 18.4897L77.8532 15.4248Z" fill="#E6E6E6"/>
<path opacity="0.1" d="M85.5234 14.8773L81.0935 18.8156C81.0935 18.8156 84.8212 21.0585 85.3072 21.606C85.7932 22.1534 86.2791 16.2449 86.2791 16.2449L85.5234 14.8773Z" fill="black"/>
<path d="M85.685 14.5501L81.2635 18.4856C81.2635 18.4856 84.9896 20.727 85.4772 21.2743C85.9648 21.8216 86.4505 15.9138 86.4505 15.9138L85.685 14.5501Z" fill="#E6E6E6"/>
<path opacity="0.1" d="M78.0147 15.7534C78.0147 15.7534 77.5287 15.5074 77.0695 16.2186C76.6103 16.9298 75.7464 17.2568 75.7464 17.2568C75.7464 17.2568 70.8304 18.0505 70.6422 18.7061L68.3472 18.8484C68.3472 18.8484 67.5372 18.9565 67.4553 20.6803C67.3734 22.4041 66.937 22.5633 66.937 22.5633C66.937 22.5633 65.9918 24.2587 66.0718 25.1333C66.1518 26.008 65.3428 26.4457 65.3428 26.4457L68.7138 35.3339C68.7138 35.3339 68.8219 38.9991 68.1998 40.3387C67.5777 41.6783 66.4178 47.6135 66.4178 47.6135C66.4178 47.6135 66.9051 47.504 66.8771 47.831C66.8491 48.1581 66.283 51.7423 66.283 51.7423C66.283 51.7423 66.121 53.1645 65.8518 53.6567C65.5826 54.1488 65.554 56.7203 65.554 56.7203L65.1214 58.5792C65.1214 58.5792 66.1481 60.9046 67.7142 60.5704C69.2804 60.2362 72.1344 54.0423 72.1344 54.0423L73.9436 47.3422L75.3481 40.7245L75.7527 36.2401L76.4016 26.3128L77.3468 19.7491C77.3468 19.7491 78.394 16.2192 78.0147 15.7534Z" fill="black"/>
<path d="M77.8532 15.4248C77.8532 15.4248 77.3672 15.1788 76.908 15.89C76.4487 16.6012 75.5848 16.9296 75.5848 16.9296C75.5848 16.9296 70.6689 17.7217 70.4807 18.3788L68.1842 18.5211C68.1842 18.5211 67.3742 18.6305 67.2938 20.353C67.2133 22.0755 66.7798 22.2403 66.7798 22.2403C66.7798 22.2403 65.8345 23.9356 65.916 24.8102C65.9974 25.6849 65.187 26.1226 65.187 26.1226L68.558 35.0108C68.558 35.0108 68.6661 38.676 68.0453 40.0156C67.4245 41.3552 66.2633 47.2904 66.2633 47.2904C66.2633 47.2904 66.7493 47.1809 66.7226 47.5094C66.696 47.838 66.1285 51.4192 66.1285 51.4192C66.1285 51.4192 65.9665 52.8415 65.696 53.3336C65.4254 53.8257 65.3996 56.3972 65.3996 56.3972L64.9705 58.2501C64.9705 58.2501 65.9971 60.5755 67.5633 60.2413C69.1294 59.9071 71.9652 53.7061 71.9652 53.7061L73.7757 47.006L75.1803 40.3868L75.5862 35.9024L76.2342 25.9751L77.1794 19.4114C77.1794 19.4114 78.2309 15.8898 77.8532 15.4248Z" fill="#2F2E41"/>
<path opacity="0.1" d="M60.5139 36.5908L58.9478 37.6864C58.9478 37.6864 56.56 37.7632 54.8408 37.3366L53.97 36.9441L53.7944 36.8672L53.9742 36.9241C54.8773 37.1958 55.5838 37.19 56.1358 37.0024C58.3522 36.2472 58.1022 32.5408 58.0221 31.7017C58.0137 31.6177 58.0074 31.5594 58.0039 31.5424C58.0035 31.5391 58.0035 31.5357 58.0039 31.5324L58.0165 31.5537C58.0467 31.6041 58.0812 31.6517 58.1196 31.696C58.1505 31.7315 58.1828 31.7685 58.218 31.8026L59.0003 33.387L59.0087 33.4538L60.5139 36.5908Z" fill="black"/>
<path d="M65.9425 25.8982L65.1868 26.1173L65.0787 27.6818C65.0787 27.6818 64.1868 27.5395 63.9438 28.6119C63.7008 29.6843 63.2696 30.1765 63.2696 30.1765C63.2696 30.1765 61.7836 31.4351 61.7021 32.5004L60.7849 33.0693C60.7849 33.0693 58.6494 32.5658 58.1654 31.6973C58.1654 31.6973 59.1374 38.7531 53.9517 37.0293C53.9517 37.0293 59.7582 39.6008 60.0279 39.9563C60.2975 40.3118 62.0813 41.3501 63.7008 40.4754C65.3202 39.6008 65.6728 38.2553 65.6728 38.2553C65.6728 38.2553 67.239 36.0395 67.2938 35.7109C67.3485 35.3822 68.5578 34.9998 68.5578 34.9998L70.8811 29.3103L65.9425 25.8982Z" fill="#2F2E41"/>
<path opacity="0.1" d="M84.9027 18.1599L85.685 14.5509C85.685 14.5509 86.0361 15.7271 86.3874 16.0002L87.549 16.9018C87.549 16.9018 88.7105 17.4494 89.1151 17.4494C89.5197 17.4494 91.7079 18.0184 91.9776 18.3241C92.2472 18.6298 93.3288 18.4066 93.3288 18.4066C93.3288 18.4066 94.2192 18.7066 95.003 18.8987C95.7869 19.0908 96.1646 20.4034 96.0017 20.9226C95.9365 21.181 95.937 21.4521 96.0033 21.7103C96.0697 21.9685 96.1996 22.2054 96.381 22.399C96.7039 22.727 96.867 23.7942 96.867 23.7942C97.2641 23.9252 97.5939 24.21 97.7842 24.5864C98.0554 25.188 97.9739 26.5008 97.9739 26.5008L93.9499 32.2438C93.9499 32.2438 94.0032 34.4598 93.8418 34.9461C93.6804 35.4324 94.4036 43.8067 94.4036 43.8067L95.2464 58.1913C95.2464 58.1913 94.1396 59.1484 93.8966 59.258C93.6536 59.3676 93.4092 54.1706 93.4092 53.9801C93.4092 53.7897 87.1716 44.5179 87.1716 44.5179C87.1716 44.5179 86.3289 43.1498 86.3289 42.8496C86.3289 42.5494 85.5451 39.786 85.5451 39.786L84.3563 34.4532L84.9027 18.1599Z" fill="black"/>
<path d="M98.3079 26.1868C98.3079 26.3746 98.298 26.5 98.298 26.5L94.2774 32.2387C94.2774 32.2387 94.3337 34.4532 94.1706 34.941C94.0765 35.2254 94.283 38.1695 94.474 40.5859C94.6145 42.3307 94.7381 43.8016 94.7381 43.8016L95.0935 49.903L95.5739 58.1862C95.5739 58.1862 94.4671 59.1433 94.2241 59.2529C93.9811 59.3625 93.7381 54.1654 93.7381 53.9737C93.7381 53.7819 87.499 44.5128 87.499 44.5128C87.499 44.5128 86.6563 43.1447 86.6563 42.8445C86.6563 42.5443 85.874 39.7809 85.874 39.7809L84.6857 34.4475L85.2251 18.15L85.6844 14.5411C85.6844 14.5411 86.36 15.7173 86.7111 15.989C87.0622 16.2607 87.8713 16.8921 87.8713 16.8921C87.8713 16.8921 89.0329 17.4397 89.4388 17.4397C89.8447 17.4397 92.0316 18.0087 92.3012 18.3144C92.5709 18.6201 93.6525 18.3968 93.6525 18.3968C93.6525 18.3968 94.5429 18.6969 95.3253 18.889C96.1076 19.0811 96.4868 20.3937 96.3253 20.9113C96.2596 21.1699 96.2598 21.4411 96.3259 21.6996C96.3919 21.958 96.5217 22.1953 96.703 22.3891C97.0271 22.7172 97.1891 23.7829 97.1891 23.7829C97.5869 23.9147 97.9171 24.2005 98.1076 24.5779C98.2966 25.0021 98.3148 25.7606 98.3079 26.1868Z" fill="#2F2E41"/>
<path opacity="0.1" d="M65.2949 99.053C65.4354 99.053 71.1014 99.2721 70.9932 100.202C70.8849 101.132 65.2949 99.053 65.2949 99.053Z" fill="black"/>
<path opacity="0.1" d="M66.5647 100.612C66.5647 100.612 70.3726 101.24 69.3739 101.815C68.3752 102.39 66.5647 100.612 66.5647 100.612Z" fill="black"/>
<path opacity="0.1" d="M80.7156 98.4513C80.7156 98.4513 87.0361 98.9989 86.0912 99.7086C85.1463 100.418 82.9043 100.529 82.7961 100.562C82.6878 100.595 80.7156 98.4513 80.7156 98.4513Z" fill="black"/>
<path opacity="0.1" d="M79.9599 101.269C79.9599 101.269 83.4713 101.87 83.5781 102.549C83.6849 103.227 79.9599 101.269 79.9599 101.269Z" fill="black"/>
<path opacity="0.1" d="M81.9038 84.8049C81.9038 84.8049 85.1174 85.57 85.3071 86.0848L81.9038 84.8049Z" fill="black"/>
<path opacity="0.1" d="M69.5072 87.1572C69.5072 87.1572 67.833 87.6493 69.4539 88.6336C71.0748 89.6178 69.5072 87.1572 69.5072 87.1572Z" fill="black"/>
<path opacity="0.1" d="M76.9346 60.8757C77.1241 60.8757 80.0682 59.8914 81.0935 60.3296C82.1189 60.7677 83.39 60.7662 83.39 60.7662L76.9346 60.8757Z" fill="black"/>
<path opacity="0.1" d="M77.3138 63.9975L77.2844 64.2677L74.7745 70.9522C74.7745 70.9522 74.3699 72.9746 74.0175 74.1238C73.7963 74.9039 73.6205 75.6965 73.4908 76.4975L75.7203 62.5012L77.3138 63.9975Z" fill="black"/>
<path d="M81.2354 52.2099L80.1875 52.2284H80.1552L79.5414 49.472C79.8433 49.4571 80.1452 49.4407 80.4501 49.4222L81.2354 52.2099Z" fill="#2F2E41"/>
<path d="M93.9762 48.8725L93.3035 49.433L91.0566 51.3034C91.0566 51.3034 84.9791 54.5859 83.3049 51.4683C81.8287 48.7219 88.7195 46.7607 90.3783 46.3326C90.6043 46.2742 90.7317 46.2458 90.7317 46.2458L93.9762 48.8725Z" fill="#FBBEBE"/>
<path opacity="0.1" d="M68.0226 21.9884C68.0226 21.9884 69.2108 22.5345 69.4807 23.3008C69.7505 24.067 68.0226 21.9884 68.0226 21.9884Z" fill="black"/>
<path opacity="0.1" d="M64.3497 30.1919C64.3497 30.1919 62.6207 32.3252 63.323 33.1459C64.0254 33.9666 64.3497 30.1919 64.3497 30.1919Z" fill="black"/>
<path opacity="0.1" d="M95.2462 23.1916C95.2462 23.1916 93.6253 23.3556 93.572 24.7774L95.2462 23.1916Z" fill="black"/>
<path opacity="0.1" d="M80.2296 45.6163C80.3916 45.4522 84.1189 39.8732 84.9827 40.3653L80.2296 45.6163Z" fill="black"/>
<path opacity="0.1" d="M87.1977 9.35325C87.199 10.4251 86.938 11.4806 86.4379 12.4253L86.3902 12.4168C85.9828 12.3301 85.7707 11.8479 85.459 11.5492C85.2678 11.3647 85.0244 11.2455 84.7629 11.2083C84.5014 11.171 84.2349 11.2177 84.0009 11.3416C83.7645 11.4851 83.5722 11.6924 83.4457 11.9404C83.3192 12.1884 83.2634 12.4671 83.2846 12.7454C83.0796 11.8692 83.1441 10.9378 82.9432 10.0601C82.7423 9.1825 82.137 8.29517 81.3097 8.27951C80.953 8.27951 80.5358 8.41373 80.2788 8.13724C80.1228 7.97319 80.0906 7.71057 79.9739 7.51849C79.3826 6.54914 77.5862 7.03919 76.8474 7.53549C76.1367 8.01271 75.2568 8.82697 74.3437 9.25363C74.356 7.52754 75.0449 5.87709 76.259 4.66536C76.8601 4.06537 77.5721 3.59115 78.3542 3.26977C79.1363 2.9484 79.9733 2.78615 80.8173 2.79231C81.6614 2.79847 82.4959 2.97291 83.2734 3.30567C84.0509 3.63843 84.756 4.12299 85.3485 4.73169C85.9411 5.34039 86.4094 6.06131 86.7268 6.85328C87.0442 7.64525 87.2044 8.49276 87.1983 9.34743L87.1977 9.35325Z" fill="black"/>
<path d="M79.9739 7.35976C80.0918 7.55751 80.1228 7.81625 80.2788 7.97851C80.5358 8.24873 80.953 8.11079 81.3097 8.12078C82.137 8.13569 82.7424 9.02391 82.9432 9.9014C83.1439 10.7789 83.0837 11.709 83.2844 12.5858C83.2634 12.3076 83.3194 12.0291 83.4462 11.7814C83.573 11.5338 83.7655 11.3268 84.0021 11.1839C84.2358 11.0601 84.5019 11.0135 84.7631 11.0505C85.0242 11.0875 85.2675 11.2062 85.4587 11.3902C85.7705 11.6902 85.9825 12.171 86.3899 12.2578C86.7973 12.3446 87.1905 11.9491 87.3366 11.514C87.4827 11.0788 87.4771 10.6023 87.5697 10.1515C87.7537 9.29817 88.3029 8.60053 88.6077 7.78911C88.9694 6.8019 88.9594 5.71437 88.5796 4.73417C88.3774 4.22071 88.0753 3.75855 87.8774 3.24509C87.5656 2.46574 85.8366 1.41615 85.4587 0.673632C84.8224 -0.569374 85.2326 0.205659 84.0021 0.673632C83.4151 0.897328 82.6453 0.101864 82.0498 0.299612C81.2505 0.558503 80.3981 0.363589 79.5707 0.246968C78.7433 0.130348 77.8318 0.119014 77.1675 0.673632C76.4034 1.30654 76.1941 2.49691 75.482 3.19245C75.1801 3.484 74.8046 3.66967 74.4861 3.94049C74.1677 4.21131 73.8934 4.61158 73.9243 5.05122C73.972 5.62015 74.5199 6.13212 74.3175 6.65691C74.2444 6.80853 74.1428 6.94428 74.0184 7.05658C73.416 7.69476 72.9683 8.46597 72.7107 9.30935C74.1559 9.76584 75.7208 8.15299 76.8514 7.39078C77.5835 6.8818 79.3826 6.39683 79.9739 7.35976Z" fill="#2F2E41"/>
<path opacity="0.1" d="M93.9761 48.8725L93.3033 49.4329C92.7105 48.4373 90.2765 46.4363 90.2765 46.4363L90.3818 46.3338C90.6079 46.2755 90.7352 46.247 90.7352 46.247L93.9761 48.8725Z" fill="black"/>
<path d="M94.625 47.8592C94.625 47.8592 94.3834 48.468 94.1334 48.9971C93.8833 49.5262 93.6123 50.0012 93.5982 49.613C93.5715 48.8465 90.4394 46.275 90.4394 46.275L90.8608 45.8574L91.3537 45.3738L94.625 47.8592Z" fill="#E6E6E6"/>
<path opacity="0.1" d="M94.7332 43.8112L95.0886 49.9126C94.2459 48.5913 91.9466 45.205 90.4641 45.3145L94.0576 41.1317C94.2069 40.9626 94.3444 40.7832 94.4691 40.5948C94.6067 42.3407 94.7332 43.8112 94.7332 43.8112Z" fill="black"/>
<path opacity="0.1" d="M94.625 47.8592C94.625 47.8592 94.3834 48.4679 94.1333 48.9971C93.1923 47.6901 91.8973 46.1455 90.8638 45.8568L91.3567 45.3732L94.625 47.8592Z" fill="black"/>
<path d="M97.3259 25.739L98.2979 26.5042C98.2979 26.5042 99.918 26.5327 100.08 27.8994C100.242 29.2662 101.728 29.8906 101.728 29.8906C101.728 29.8906 102.834 31.0114 102.834 31.5311C102.834 32.0508 103.677 32.9818 103.677 33.0628C103.677 33.1438 104.487 34.8136 104.379 35.1136C104.271 35.4137 105.243 36.7278 104.941 37.22C104.697 37.6613 104.48 38.1178 104.292 38.5868C104.292 38.5868 103.028 41.0486 102.375 41.5137C101.722 41.9789 98.7568 45.8886 98.7568 45.8886C98.7568 45.8886 95.5699 49.6078 95.5699 50.757C95.5699 50.757 92.4624 45.5061 90.6273 45.6369L94.2188 41.4526C94.2188 41.4526 94.8411 40.7699 94.8677 40.3589C94.8944 39.9479 96.5953 38.0623 97.4057 37.9795C97.4057 37.9795 97.5462 36.8588 97.1894 36.8312C96.8325 36.8036 96.5414 35.928 96.5414 35.928C96.5414 35.928 94.1649 33.0835 94.1381 31.2787C94.1113 29.474 97.3259 25.739 97.3259 25.739Z" fill="#2F2E41"/>
<path opacity="0.1" d="M98.7572 28.333C98.7572 28.333 96.4874 30.0283 96.9752 30.5744C97.463 31.1206 98.7572 28.333 98.7572 28.333Z" fill="black"/>
<path opacity="0.1" d="M72.7757 107.996C72.7757 107.996 70.5076 109.501 69.3736 109.276C68.2396 109.051 67.0771 109.66 67.0771 109.66C66.2957 110.525 65.3102 111.174 64.2132 111.547C62.3774 112.176 59.8127 111.93 58.3547 111.436C57.6637 111.205 57.6089 110.903 57.9404 110.533C59.5261 110.853 63.0699 111.489 64.025 111.027C65.2666 110.425 67.049 109.112 67.049 109.112C67.049 109.112 69.3736 108.784 69.6966 108.784C69.9269 108.784 71.7206 108.035 72.7332 107.604L72.7757 107.996Z" fill="black"/>
<path opacity="0.1" d="M69.1435 28.0045C69.1435 28.0045 69.1435 34.2397 68.6169 34.8554C68.0902 35.4712 69.1435 28.0045 69.1435 28.0045Z" fill="black"/>
<path opacity="0.1" d="M93.4901 30.0142L94.2724 32.2422C94.2724 32.2422 94.5842 30.0555 93.4901 30.0142Z" fill="black"/>
<g opacity="0.1">
<path opacity="0.1" d="M74.3938 6.11191C74.5919 5.59845 74.0736 5.09648 74.0062 4.54738C73.9372 4.70254 73.9073 4.87261 73.9191 5.04234C73.9542 5.45618 74.2562 5.84452 74.3405 6.22704C74.3619 6.19048 74.3798 6.15186 74.3938 6.11176V6.11191Z" fill="black"/>
<path opacity="0.1" d="M83.3579 12.0015C83.1641 11.1382 83.2174 10.225 83.0236 9.36322C82.8298 8.5014 82.2187 7.59677 81.3915 7.5826C81.0348 7.5826 80.6175 7.71488 80.3591 7.44033C80.2046 7.27823 80.1723 7.01367 80.0557 6.82159C79.4644 5.85224 77.6679 6.34437 76.9277 6.84008C75.8222 7.58394 74.3054 9.13848 72.8895 8.78564C72.8207 8.95207 72.757 9.11984 72.7056 9.29268C74.1508 9.74917 75.7156 8.13632 76.8462 7.37412C77.5836 6.87781 79.3829 6.37852 79.9742 7.35563C80.092 7.55337 80.1231 7.81211 80.2791 7.97437C80.5361 8.24459 80.9533 8.10665 81.31 8.11664C82.1373 8.13155 82.7427 9.01977 82.9435 9.89726C83.1442 10.7747 83.084 11.7049 83.2847 12.5816C83.271 12.3856 83.296 12.1888 83.3583 12.0027L83.3579 12.0015Z" fill="black"/>
<path opacity="0.1" d="M87.4182 10.9746C87.2777 11.4097 86.8858 11.8081 86.4702 11.7184C86.0545 11.6288 85.8507 11.1495 85.5404 10.8508C85.3491 10.6665 85.1056 10.5475 84.8441 10.5106C84.5826 10.4736 84.3162 10.5204 84.0824 10.6445C83.8572 10.7808 83.672 10.9755 83.546 11.2086C83.4201 11.4416 83.3579 11.7045 83.366 11.97C83.474 11.6353 83.7007 11.353 84.0023 11.1778C84.2359 11.0541 84.502 11.0074 84.7632 11.0444C85.0244 11.0814 85.2676 11.2001 85.4588 11.3841C85.7706 11.6841 85.9827 12.1649 86.39 12.2517C86.7974 12.3385 87.1906 11.943 87.3367 11.5079C87.4141 11.2524 87.464 10.9892 87.4856 10.7228C87.4681 10.808 87.4456 10.8921 87.4182 10.9746Z" fill="black"/>
<path opacity="0.1" d="M88.6878 7.2492C88.3845 8.05987 87.8336 8.7596 87.6513 9.61292C87.6148 9.78502 87.5937 9.96144 87.5727 10.1377C87.7581 9.28439 88.3045 8.59033 88.6079 7.78249C88.7429 7.41674 88.8271 7.03381 88.8582 6.64462C88.8167 6.85015 88.7599 7.0522 88.6883 7.24905L88.6878 7.2492Z" fill="black"/>
</g>
<path d="M51.9178 27.6407L51.9074 27.646C51.8798 27.66 51.8687 27.6941 51.8826 27.7221L52.2886 28.5379C52.3025 28.5658 52.3362 28.5771 52.3638 28.563L52.3741 28.5577C52.4018 28.5436 52.4129 28.5095 52.3989 28.4816L51.9929 27.6658C51.979 27.6378 51.9454 27.6266 51.9178 27.6407Z" fill="#3A3768"/>
<path d="M50.7667 26.075L47.6809 27.6495C47.5182 27.7326 47.4527 27.9334 47.5347 28.0982L51.0023 35.0661C51.0843 35.2308 51.2827 35.2971 51.4454 35.2141L54.5312 33.6395C54.6939 33.5565 54.7593 33.3556 54.6773 33.1909L51.2097 26.223C51.1277 26.0582 50.9294 25.992 50.7667 26.075Z" fill="#3A3768"/>
<path d="M50.3518 26.5283C50.3339 26.5364 50.3179 26.5482 50.3047 26.563C50.2916 26.5778 50.2816 26.5952 50.2756 26.6141C50.2695 26.633 50.2673 26.6529 50.2693 26.6727C50.2714 26.6925 50.2774 26.7116 50.2872 26.7289L50.3019 26.7559C50.3116 26.7732 50.3176 26.7924 50.3195 26.8123C50.3214 26.8321 50.3192 26.8521 50.313 26.871C50.3068 26.8899 50.2967 26.9073 50.2834 26.922C50.2701 26.9368 50.254 26.9485 50.2359 26.9565L48.6783 27.7515C48.6613 27.7613 48.6424 27.7675 48.6229 27.7695C48.6033 27.7716 48.5836 27.7694 48.5649 27.7632C48.5463 27.7571 48.5291 27.747 48.5145 27.7337C48.4999 27.7204 48.4882 27.7042 48.4802 27.686L48.4655 27.6575C48.4575 27.6394 48.4458 27.6231 48.4313 27.6098C48.4167 27.5965 48.3995 27.5864 48.3808 27.5803C48.3622 27.5741 48.3424 27.572 48.3229 27.574C48.3034 27.576 48.2845 27.5822 48.2674 27.5921L47.964 27.7457C47.9308 27.7624 47.9012 27.7857 47.8768 27.8141C47.8525 27.8425 47.834 27.8755 47.8224 27.9112C47.8108 27.947 47.8062 27.9846 47.8091 28.0221C47.8119 28.0596 47.8221 28.0962 47.839 28.1297L51.1527 34.79C51.1693 34.8237 51.1922 34.8537 51.2203 34.8783C51.2484 34.9029 51.281 34.9217 51.3162 34.9334C51.3515 34.9452 51.3887 34.9498 51.4258 34.9469C51.4628 34.944 51.4989 34.9337 51.532 34.9166L54.2498 33.5297C54.2829 33.5129 54.3123 33.4897 54.3365 33.4614C54.3607 33.4331 54.3791 33.4003 54.3908 33.3647C54.4024 33.3292 54.4069 33.2917 54.4042 33.2543C54.4015 33.217 54.3915 33.1806 54.3748 33.1472L51.0654 26.4858C51.0487 26.4525 51.0257 26.4228 50.9977 26.3984C50.9697 26.3741 50.9372 26.3556 50.9021 26.3439C50.867 26.3323 50.83 26.3278 50.7932 26.3307C50.7564 26.3336 50.7205 26.3438 50.6876 26.3607L50.3518 26.5283Z" fill="#A55EEA"/>
<path opacity="0.1" d="M32.9575 104.719H27.5866V105.58H32.9575V104.719Z" fill="black"/>
<path d="M44.9369 27.0584V44.0225C44.9373 44.2461 44.8941 44.4676 44.8098 44.6743C44.7254 44.881 44.6016 45.0687 44.4455 45.2269C44.2893 45.385 44.1039 45.5104 43.8998 45.5958C43.6957 45.6811 43.4769 45.7249 43.2561 45.7245H41.4507V25.3579H43.2559C43.4766 25.3575 43.6952 25.4012 43.8992 25.4865C44.1032 25.5717 44.2885 25.6969 44.4447 25.8548C44.6008 26.0128 44.7246 26.2003 44.8091 26.4068C44.8935 26.6132 44.9369 26.8345 44.9368 27.058L44.9369 27.0584Z" fill="#D0CDE1"/>
<path opacity="0.2" d="M43.5664 27.5322V43.6256C43.4642 43.6427 43.3607 43.6513 43.2571 43.6511H42.9988V27.5067H43.2577C43.3611 27.5065 43.4644 27.515 43.5664 27.5322Z" fill="black"/>
<path d="M36.9672 51.7102H30.4588V104.553H36.9672V51.7102Z" fill="#D0CDE1"/>
<path d="M25.8875 103.724H40.7893C42.4254 103.724 43.9945 104.382 45.1514 105.554C46.3083 106.725 46.9583 108.314 46.9583 109.971V110.932H19.7185V109.971C19.7185 108.314 20.3685 106.725 21.5254 105.554C22.6823 104.382 24.2514 103.724 25.8875 103.724Z" fill="#D0CDE1"/>
<path opacity="0.1" d="M36.9672 58.9852H30.4588V65.3238H36.9672V58.9852Z" fill="black"/>
<path opacity="0.1" d="M36.9672 58.5538H30.4588V64.8924H36.9672V58.5538Z" fill="black"/>
<path d="M37.6447 58.7687H29.8555V65.1073H37.6447V58.7687Z" fill="#D0CDE1"/>
<path d="M40.4731 47.729V50.3597C40.4731 50.6838 40.4101 51.0048 40.2876 51.3042C40.1651 51.6036 39.9855 51.8757 39.7592 52.1049C39.5329 52.3341 39.2642 52.5158 38.9685 52.6399C38.6727 52.7639 38.3558 52.8277 38.0357 52.8277H29.3963C28.7499 52.8277 28.13 52.5677 27.6729 52.1048C27.2158 51.642 26.9591 51.0143 26.9591 50.3597V47.729C26.9595 47.0749 27.2165 46.4478 27.6736 45.9855C28.1307 45.5233 28.7503 45.2638 29.3963 45.2642H38.0357C38.6817 45.2638 39.3014 45.5233 39.7585 45.9855C40.2155 46.4478 40.4725 47.0749 40.473 47.729H40.4731Z" fill="#D0CDE1"/>
<path opacity="0.1" d="M40.4731 47.729V47.9975C39.6797 49.0506 38.6571 49.9041 37.4847 50.4916C36.3123 51.0792 35.0219 51.3848 33.7138 51.3848C32.4057 51.3848 31.1153 51.0792 29.9429 50.4916C28.7705 49.9041 27.7479 49.0506 26.9545 47.9975V47.729C26.9549 47.0749 27.2119 46.4478 27.669 45.9855C28.1261 45.5233 28.7458 45.2638 29.3918 45.2642H38.0313C38.3515 45.2634 38.6688 45.3266 38.9649 45.45C39.261 45.5735 39.5302 45.7549 39.757 45.9839C39.9838 46.2128 40.1638 46.4848 40.2867 46.7843C40.4096 47.0837 40.4729 47.4048 40.4731 47.729Z" fill="black"/>
<path d="M25.8996 23.2184H41.5281C41.7102 23.2184 41.8848 23.2916 42.0136 23.422C42.1423 23.5524 42.2147 23.7292 42.2147 23.9136V43.7125C42.2147 45.6912 41.4384 47.5888 40.0567 48.9879C38.675 50.387 36.8009 51.1731 34.8469 51.1731H32.5807C30.6267 51.1731 28.7527 50.387 27.3709 48.9879C25.9892 47.5888 25.213 45.6912 25.213 43.7125V23.9136C25.213 23.7292 25.2853 23.5524 25.4141 23.422C25.5428 23.2916 25.7175 23.2184 25.8996 23.2184Z" fill="#D0CDE1"/>
<path d="M28.7258 15.4125H38.5786C40.0233 15.4125 41.1946 16.3351 41.1946 17.4735V23.3782C41.1946 23.7884 40.7725 24.1208 40.2521 24.1208H27.0524C26.5318 24.1208 26.1099 23.7883 26.1099 23.3782V17.4726C26.1099 16.3344 27.2812 15.4116 28.7259 15.4116L28.7258 15.4125Z" fill="#D0CDE1"/>
<path opacity="0.2" d="M38.8323 19.9339H28.236V20.7258H38.8323V19.9339Z" fill="black"/>
<path opacity="0.1" d="M40.4715 25.7599H26.956V35.6915H40.4715V25.7599Z" fill="black"/>
<path d="M40.4715 25.5436H26.956V35.4752H40.4715V25.5436Z" fill="#A55EEA"/>
<g opacity="0.1">
<path opacity="0.1" d="M29.956 37.1773H27.1482C27.0839 37.1773 27.0318 37.2301 27.0318 37.2951V38.1584C27.0318 38.2235 27.0839 38.2763 27.1482 38.2763H29.956C30.0202 38.2763 30.0723 38.2235 30.0723 38.1584V37.2951C30.0723 37.2301 30.0202 37.1773 29.956 37.1773Z" fill="black"/>
<path opacity="0.1" d="M33.3967 37.1773H30.5888C30.5246 37.1773 30.4725 37.2301 30.4725 37.2951V38.1584C30.4725 38.2235 30.5246 38.2763 30.5888 38.2763H33.3967C33.4609 38.2763 33.513 38.2235 33.513 38.1584V37.2951C33.513 37.2301 33.4609 37.1773 33.3967 37.1773Z" fill="black"/>
<path opacity="0.1" d="M36.8373 37.1773H34.0295C33.9652 37.1773 33.9132 37.2301 33.9132 37.2951V38.1584C33.9132 38.2235 33.9652 38.2763 34.0295 38.2763H36.8373C36.9016 38.2763 36.9537 38.2235 36.9537 38.1584V37.2951C36.9537 37.2301 36.9016 37.1773 36.8373 37.1773Z" fill="black"/>
<path opacity="0.1" d="M40.2795 37.1773H37.4716C37.4074 37.1773 37.3553 37.2301 37.3553 37.2951V38.1584C37.3553 38.2235 37.4074 38.2763 37.4716 38.2763H40.2795C40.3437 38.2763 40.3958 38.2235 40.3958 38.1584V37.2951C40.3958 37.2301 40.3437 37.1773 40.2795 37.1773Z" fill="black"/>
<path opacity="0.1" d="M29.956 39.3291H27.1482C27.0839 39.3291 27.0318 39.3819 27.0318 39.4469V40.3102C27.0318 40.3753 27.0839 40.428 27.1482 40.428H29.956C30.0202 40.428 30.0723 40.3753 30.0723 40.3102V39.4469C30.0723 39.3819 30.0202 39.3291 29.956 39.3291Z" fill="black"/>
<path opacity="0.1" d="M33.3967 39.3291H30.5888C30.5246 39.3291 30.4725 39.3819 30.4725 39.4469V40.3102C30.4725 40.3753 30.5246 40.428 30.5888 40.428H33.3967C33.4609 40.428 33.513 40.3753 33.513 40.3102V39.4469C33.513 39.3819 33.4609 39.3291 33.3967 39.3291Z" fill="black"/>
<path opacity="0.1" d="M36.8373 39.3291H34.0295C33.9652 39.3291 33.9132 39.3819 33.9132 39.4469V40.3102C33.9132 40.3753 33.9652 40.428 34.0295 40.428H36.8373C36.9016 40.428 36.9537 40.3753 36.9537 40.3102V39.4469C36.9537 39.3819 36.9016 39.3291 36.8373 39.3291Z" fill="black"/>
<path opacity="0.1" d="M29.956 41.4272H27.1482C27.0839 41.4272 27.0318 41.4799 27.0318 41.545V42.4083C27.0318 42.4734 27.0839 42.5261 27.1482 42.5261H29.956C30.0202 42.5261 30.0723 42.4734 30.0723 42.4083V41.545C30.0723 41.4799 30.0202 41.4272 29.956 41.4272Z" fill="black"/>
<path opacity="0.1" d="M33.3967 41.4272H30.5888C30.5246 41.4272 30.4725 41.4799 30.4725 41.545V42.4083C30.4725 42.4734 30.5246 42.5261 30.5888 42.5261H33.3967C33.4609 42.5261 33.513 42.4734 33.513 42.4083V41.545C33.513 41.4799 33.4609 41.4272 33.3967 41.4272Z" fill="black"/>
<path opacity="0.1" d="M36.8373 41.4272H34.0295C33.9652 41.4272 33.9132 41.4799 33.9132 41.545V42.4083C33.9132 42.4734 33.9652 42.5261 34.0295 42.5261H36.8373C36.9016 42.5261 36.9537 42.4734 36.9537 42.4083V41.545C36.9537 41.4799 36.9016 41.4272 36.8373 41.4272Z" fill="black"/>
<path opacity="0.1" d="M29.956 43.7415H27.1482C27.0839 43.7415 27.0318 43.7943 27.0318 43.8594V44.7227C27.0318 44.7877 27.0839 44.8405 27.1482 44.8405H29.956C30.0202 44.8405 30.0723 44.7877 30.0723 44.7227V43.8594C30.0723 43.7943 30.0202 43.7415 29.956 43.7415Z" fill="black"/>
<path opacity="0.1" d="M33.3967 43.7415H30.5888C30.5246 43.7415 30.4725 43.7943 30.4725 43.8594V44.7227C30.4725 44.7877 30.5246 44.8405 30.5888 44.8405H33.3967C33.4609 44.8405 33.513 44.7877 33.513 44.7227V43.8594C33.513 43.7943 33.4609 43.7415 33.3967 43.7415Z" fill="black"/>
<path opacity="0.1" d="M36.8373 43.7415H34.0295C33.9652 43.7415 33.9132 43.7943 33.9132 43.8594V44.7227C33.9132 44.7877 33.9652 44.8405 34.0295 44.8405H36.8373C36.9016 44.8405 36.9537 44.7877 36.9537 44.7227V43.8594C36.9537 43.7943 36.9016 43.7415 36.8373 43.7415Z" fill="black"/>
<path opacity="0.1" d="M40.2795 39.3291H37.4716C37.4074 39.3291 37.3553 39.3819 37.3553 39.4469V40.3102C37.3553 40.3753 37.4074 40.428 37.4716 40.428H40.2795C40.3437 40.428 40.3958 40.3753 40.3958 40.3102V39.4469C40.3958 39.3819 40.3437 39.3291 40.2795 39.3291Z" fill="black"/>
<path opacity="0.1" d="M39.9465 41.309H37.8319C37.6716 41.309 37.5417 41.4405 37.5417 41.6027V44.9319C37.5417 45.0942 37.6716 45.2257 37.8319 45.2257H39.9465C40.1067 45.2257 40.2366 45.0942 40.2366 44.9319V41.6027C40.2366 41.4405 40.1067 41.309 39.9465 41.309Z" fill="black"/>
</g>
<path d="M29.956 36.961H27.1482C27.0839 36.961 27.0318 37.0137 27.0318 37.0788V37.9421C27.0318 38.0072 27.0839 38.0599 27.1482 38.0599H29.956C30.0202 38.0599 30.0723 38.0072 30.0723 37.9421V37.0788C30.0723 37.0137 30.0202 36.961 29.956 36.961Z" fill="white"/>
<path d="M33.3967 36.961H30.5888C30.5246 36.961 30.4725 37.0137 30.4725 37.0788V37.9421C30.4725 38.0072 30.5246 38.0599 30.5888 38.0599H33.3967C33.4609 38.0599 33.513 38.0072 33.513 37.9421V37.0788C33.513 37.0137 33.4609 36.961 33.3967 36.961Z" fill="white"/>
<path d="M36.8373 36.961H34.0295C33.9652 36.961 33.9131 37.0137 33.9131 37.0788V37.9421C33.9131 38.0072 33.9652 38.0599 34.0295 38.0599H36.8373C36.9016 38.0599 36.9537 38.0072 36.9537 37.9421V37.0788C36.9537 37.0137 36.9016 36.961 36.8373 36.961Z" fill="white"/>
<path d="M40.2795 36.961H37.4716C37.4074 36.961 37.3553 37.0137 37.3553 37.0788V37.9421C37.3553 38.0072 37.4074 38.0599 37.4716 38.0599H40.2795C40.3437 38.0599 40.3958 38.0072 40.3958 37.9421V37.0788C40.3958 37.0137 40.3437 36.961 40.2795 36.961Z" fill="#2F2E41"/>
<path d="M29.956 39.1127H27.1482C27.0839 39.1127 27.0318 39.1654 27.0318 39.2305V40.0938C27.0318 40.1589 27.0839 40.2116 27.1482 40.2116H29.956C30.0202 40.2116 30.0723 40.1589 30.0723 40.0938V39.2305C30.0723 39.1654 30.0202 39.1127 29.956 39.1127Z" fill="white"/>
<path d="M33.3967 39.1127H30.5888C30.5246 39.1127 30.4725 39.1654 30.4725 39.2305V40.0938C30.4725 40.1589 30.5246 40.2116 30.5888 40.2116H33.3967C33.4609 40.2116 33.513 40.1589 33.513 40.0938V39.2305C33.513 39.1654 33.4609 39.1127 33.3967 39.1127Z" fill="white"/>
<path d="M36.8373 39.1127H34.0295C33.9652 39.1127 33.9131 39.1654 33.9131 39.2305V40.0938C33.9131 40.1589 33.9652 40.2116 34.0295 40.2116H36.8373C36.9016 40.2116 36.9537 40.1589 36.9537 40.0938V39.2305C36.9537 39.1654 36.9016 39.1127 36.8373 39.1127Z" fill="white"/>
<path d="M29.956 41.2107H27.1482C27.0839 41.2107 27.0318 41.2635 27.0318 41.3285V42.1918C27.0318 42.2569 27.0839 42.3097 27.1482 42.3097H29.956C30.0202 42.3097 30.0723 42.2569 30.0723 42.1918V41.3285C30.0723 41.2635 30.0202 41.2107 29.956 41.2107Z" fill="white"/>
<path d="M33.3967 41.2107H30.5888C30.5246 41.2107 30.4725 41.2635 30.4725 41.3285V42.1918C30.4725 42.2569 30.5246 42.3097 30.5888 42.3097H33.3967C33.4609 42.3097 33.513 42.2569 33.513 42.1918V41.3285C33.513 41.2635 33.4609 41.2107 33.3967 41.2107Z" fill="white"/>
<path d="M36.8373 41.2107H34.0295C33.9652 41.2107 33.9131 41.2635 33.9131 41.3285V42.1918C33.9131 42.2569 33.9652 42.3097 34.0295 42.3097H36.8373C36.9016 42.3097 36.9537 42.2569 36.9537 42.1918V41.3285C36.9537 41.2635 36.9016 41.2107 36.8373 41.2107Z" fill="white"/>
<path d="M29.956 43.5252H27.1482C27.0839 43.5252 27.0318 43.578 27.0318 43.6431V44.5064C27.0318 44.5714 27.0839 44.6242 27.1482 44.6242H29.956C30.0202 44.6242 30.0723 44.5714 30.0723 44.5064V43.6431C30.0723 43.578 30.0202 43.5252 29.956 43.5252Z" fill="white"/>
<path d="M33.3967 43.5252H30.5888C30.5246 43.5252 30.4725 43.578 30.4725 43.6431V44.5064C30.4725 44.5714 30.5246 44.6242 30.5888 44.6242H33.3967C33.4609 44.6242 33.513 44.5714 33.513 44.5064V43.6431C33.513 43.578 33.4609 43.5252 33.3967 43.5252Z" fill="white"/>
<path d="M36.8373 43.5252H34.0295C33.9652 43.5252 33.9131 43.578 33.9131 43.6431V44.5064C33.9131 44.5714 33.9652 44.6242 34.0295 44.6242H36.8373C36.9016 44.6242 36.9537 44.5714 36.9537 44.5064V43.6431C36.9537 43.578 36.9016 43.5252 36.8373 43.5252Z" fill="white"/>
<path d="M40.2795 39.1127H37.4716C37.4074 39.1127 37.3553 39.1654 37.3553 39.2305V40.0938C37.3553 40.1589 37.4074 40.2116 37.4716 40.2116H40.2795C40.3437 40.2116 40.3958 40.1589 40.3958 40.0938V39.2305C40.3958 39.1654 40.3437 39.1127 40.2795 39.1127Z" fill="#2F2E41"/>
<path d="M39.9465 41.0939H37.8319C37.6716 41.0939 37.5417 41.2255 37.5417 41.3877V44.7169C37.5417 44.8792 37.6716 45.0107 37.8319 45.0107H39.9465C40.1067 45.0107 40.2366 44.8792 40.2366 44.7169V41.3877C40.2366 41.2255 40.1067 41.0939 39.9465 41.0939Z" fill="#A55EEA"/>
<path d="M35.1515 34.269H33.6949V34.4456H35.1515V34.269Z" fill="white"/>
<path d="M37.1915 34.269H35.735V34.4456H37.1915V34.269Z" fill="white"/>
<path d="M39.2317 34.269H37.7752V34.4456H39.2317V34.269Z" fill="white"/>
</g>
<defs>
<clipPath id="clip0">
<rect width="105" height="115" fill="white"/>
</clipPath>
</defs>
</svg>
